<svg width="36" height="34" viewBox="0 0 36 34" fill="none" xmlns="http://www.w3.org/2000/svg">
<g clip-path="url(#clip0_22_1723)">
<path d="M35.4028 0.432465C34.8367 1.01935 34.3813 1.75911 33.9317 2.55591C33.3453 3.59494 32.7674 4.73285 31.9617 5.79543C31.1578 6.85536 30.1296 7.83619 28.6487 8.55289C27.1855 9.26104 25.2748 9.71396 22.6923 9.72506V6.69552L35.4028 0.432465Z" fill="#BC0927" stroke="#1C2B45" stroke-width="0.270416"/>
<path d="M35.3322 0.306137C34.8573 0.639443 34.4171 1.07325 33.9586 1.55147C33.3024 2.23585 32.6058 3.01469 31.7037 3.75349C29.9187 5.21559 27.3263 6.52237 22.6923 6.54042V3.63116L35.3322 0.306137Z" fill="#3B107A" stroke="#1C2B45" stroke-width="0.270416"/>
<path d="M35.5138 0.120361C34.605 0.513556 33.8912 0.896962 33.2349 1.25427C32.4734 1.66875 31.7927 2.04609 30.9707 2.36683C29.3415 3.00265 27.1486 3.41934 22.6923 3.42531V0.120361H35.5138Z" fill="white" stroke="#1C2B45" stroke-width="0.270416"/>
<path d="M0 17.7046C0 5.25556 12.8015 0.00973511 21.0276 0.00973511V9.82609C17.1844 9.60098 6.55165 11.5192 6.55165 19.8675C6.55165 23.4036 8.84132 31.1617 21.0373 33.9804C14.3721 33.9608 0 30.5686 0 17.7046Z" fill="#1C2B45"/>
<path d="M21.0276 22.8134L21.0762 27.5047C17.1141 27.5047 10.4651 25.7104 10.4651 19.4956C10.4651 14.1226 15.3715 11.0495 20.3169 11.0495C13.921 13.1892 13.921 16.4714 13.921 17.8612C13.921 20.0633 16.3061 22.8134 21.0276 22.8134Z" fill="#1C2B45"/>
<path d="M21.0276 33.9902V27.5405C26.1774 27.5405 30.4413 23.9487 30.4413 20.8071C30.4413 17.4893 30.4413 14.5826 21.7967 10.8146C26.252 11.4149 35.1628 14.4964 35.1628 22.0207C35.1628 26.1801 32.1566 33.9902 21.0276 33.9902Z" fill="#1C2B45"/>
</g>
<defs>
<clipPath id="clip0_22_1723">
<rect width="36" height="34" fill="white"/>
</clipPath>
</defs>
</svg>
